<mxfile host="app.diagrams.net" agent="Mozilla/5.0 (Windows NT 10.0; Win64; x64) AppleWebKit/537.36 (KHTML, like Gecko) Chrome/131.0.0.0 Safari/537.36" version="26.0.4" pages="2">
  <diagram id="XIn9jO8XFuwhgedg12_c" name="Page-1">
    <mxGraphModel dx="1309" dy="891" grid="1" gridSize="10" guides="1" tooltips="1" connect="1" arrows="1" fold="1" page="1" pageScale="1" pageWidth="827" pageHeight="1169" math="0" shadow="0">
      <root>
        <mxCell id="0" />
        <mxCell id="1" parent="0" />
        <mxCell id="ywCVn1Az8aZsUojbST9u-3" value="&lt;b&gt;Learning Management System&lt;/b&gt;" style="rounded=0;whiteSpace=wrap;html=1;fillColor=#1ba1e2;strokeColor=#006EAF;fontColor=#ffffff;" parent="1" vertex="1">
          <mxGeometry x="412.5" y="170" width="195" height="60" as="geometry" />
        </mxCell>
        <mxCell id="ywCVn1Az8aZsUojbST9u-4" value="Admin" style="rounded=1;whiteSpace=wrap;html=1;fillColor=#1ba1e2;strokeColor=#006EAF;fontColor=#ffffff;" parent="1" vertex="1">
          <mxGeometry x="460" y="300" width="120" height="60" as="geometry" />
        </mxCell>
        <mxCell id="ywCVn1Az8aZsUojbST9u-9" value="" style="endArrow=classic;html=1;exitX=0.5;exitY=1;exitDx=0;exitDy=0;entryX=0.5;entryY=0;entryDx=0;entryDy=0;fillColor=#1ba1e2;strokeColor=light-dark(#0a0a0a, #51afe7);" parent="1" target="ywCVn1Az8aZsUojbST9u-3" edge="1">
          <mxGeometry width="50" height="50" relative="1" as="geometry">
            <mxPoint x="510" y="120" as="sourcePoint" />
            <mxPoint x="575" y="400" as="targetPoint" />
          </mxGeometry>
        </mxCell>
        <mxCell id="ywCVn1Az8aZsUojbST9u-10" value="" style="endArrow=none;html=1;entryX=0.5;entryY=1;entryDx=0;entryDy=0;fillColor=#1ba1e2;strokeColor=#00000A;" parent="1" target="ywCVn1Az8aZsUojbST9u-3" edge="1">
          <mxGeometry width="50" height="50" relative="1" as="geometry">
            <mxPoint x="510" y="270" as="sourcePoint" />
            <mxPoint x="575" y="400" as="targetPoint" />
          </mxGeometry>
        </mxCell>
        <mxCell id="ywCVn1Az8aZsUojbST9u-31" value="View&lt;br&gt;Educators" style="rounded=1;whiteSpace=wrap;html=1;fillColor=#1ba1e2;strokeColor=#006EAF;fontColor=#ffffff;" parent="1" vertex="1">
          <mxGeometry x="440" y="551" width="110" height="45" as="geometry" />
        </mxCell>
        <mxCell id="ywCVn1Az8aZsUojbST9u-37" value="" style="endArrow=classic;html=1;exitX=0.5;exitY=1;exitDx=0;exitDy=0;fillColor=#1ba1e2;strokeColor=default;" parent="1" edge="1">
          <mxGeometry width="50" height="50" relative="1" as="geometry">
            <mxPoint x="510" y="270" as="sourcePoint" />
            <mxPoint x="510" y="300" as="targetPoint" />
          </mxGeometry>
        </mxCell>
        <mxCell id="FphcVSAyuAueKaMEaV9c-6" style="edgeStyle=orthogonalEdgeStyle;rounded=0;orthogonalLoop=1;jettySize=auto;html=1;exitX=1;exitY=0.5;exitDx=0;exitDy=0;" parent="1" source="QQzSzM0eZB-9uusMBPyI-1" edge="1">
          <mxGeometry relative="1" as="geometry">
            <mxPoint x="240" y="700" as="targetPoint" />
          </mxGeometry>
        </mxCell>
        <mxCell id="QQzSzM0eZB-9uusMBPyI-1" value="View Students" style="rounded=1;whiteSpace=wrap;html=1;fillColor=#1ba1e2;strokeColor=#006EAF;fontColor=#ffffff;" parent="1" vertex="1">
          <mxGeometry x="110" y="550" width="110" height="45" as="geometry" />
        </mxCell>
        <mxCell id="QQzSzM0eZB-9uusMBPyI-2" value="" style="endArrow=classic;html=1;entryX=0.564;entryY=0;entryDx=0;entryDy=0;entryPerimeter=0;fillColor=#1ba1e2;strokeColor=light-dark(#0f0f10, #51afe7);" parent="1" target="QQzSzM0eZB-9uusMBPyI-1" edge="1">
          <mxGeometry width="50" height="50" relative="1" as="geometry">
            <mxPoint x="172" y="520" as="sourcePoint" />
            <mxPoint x="387.5" y="540" as="targetPoint" />
          </mxGeometry>
        </mxCell>
        <mxCell id="QQzSzM0eZB-9uusMBPyI-5" value="Logout" style="rounded=0;whiteSpace=wrap;html=1;fillColor=#1ba1e2;strokeColor=#006EAF;fontColor=#ffffff;" parent="1" vertex="1">
          <mxGeometry x="455" y="750" width="110" height="45" as="geometry" />
        </mxCell>
        <mxCell id="R2tYwA3PwA-s1lSycaBH-1" value="Login" style="rhombus;whiteSpace=wrap;html=1;fillColor=#1ba1e2;strokeColor=#006EAF;fontColor=#ffffff;" parent="1" vertex="1">
          <mxGeometry x="480" y="400" width="80" height="80" as="geometry" />
        </mxCell>
        <mxCell id="R2tYwA3PwA-s1lSycaBH-2" value="" style="endArrow=classic;html=1;exitX=0;exitY=0.5;exitDx=0;exitDy=0;fillColor=#1ba1e2;strokeColor=default;" parent="1" source="R2tYwA3PwA-s1lSycaBH-1" edge="1">
          <mxGeometry width="50" height="50" relative="1" as="geometry">
            <mxPoint x="680" y="440" as="sourcePoint" />
            <mxPoint x="520" y="380" as="targetPoint" />
            <Array as="points">
              <mxPoint x="420" y="440" />
              <mxPoint x="420" y="380" />
            </Array>
          </mxGeometry>
        </mxCell>
        <mxCell id="R2tYwA3PwA-s1lSycaBH-4" value="Yes" style="text;html=1;align=center;verticalAlign=middle;resizable=0;points=[];autosize=1;" parent="1" vertex="1">
          <mxGeometry x="520" y="470" width="40" height="20" as="geometry" />
        </mxCell>
        <mxCell id="R2tYwA3PwA-s1lSycaBH-5" value="" style="endArrow=classic;html=1;exitX=0.5;exitY=1;exitDx=0;exitDy=0;entryX=0.5;entryY=0;entryDx=0;entryDy=0;fillColor=#1ba1e2;strokeColor=default;" parent="1" edge="1">
          <mxGeometry width="50" height="50" relative="1" as="geometry">
            <mxPoint x="520" y="360" as="sourcePoint" />
            <mxPoint x="520" y="400" as="targetPoint" />
          </mxGeometry>
        </mxCell>
        <mxCell id="R2tYwA3PwA-s1lSycaBH-6" value="" style="endArrow=classic;html=1;exitX=-0.05;exitY=0.45;exitDx=0;exitDy=0;exitPerimeter=0;fillColor=#1ba1e2;strokeColor=default;" parent="1" source="R2tYwA3PwA-s1lSycaBH-4" edge="1">
          <mxGeometry width="50" height="50" relative="1" as="geometry">
            <mxPoint x="520.5" y="500" as="sourcePoint" />
            <mxPoint x="520.5" y="520" as="targetPoint" />
          </mxGeometry>
        </mxCell>
        <mxCell id="FphcVSAyuAueKaMEaV9c-10" style="edgeStyle=orthogonalEdgeStyle;rounded=0;orthogonalLoop=1;jettySize=auto;html=1;exitX=0;exitY=0.5;exitDx=0;exitDy=0;" parent="1" source="R2tYwA3PwA-s1lSycaBH-7" edge="1">
          <mxGeometry relative="1" as="geometry">
            <mxPoint x="670" y="700" as="targetPoint" />
          </mxGeometry>
        </mxCell>
        <mxCell id="R2tYwA3PwA-s1lSycaBH-7" value="View&lt;br&gt;Content Flagging" style="rounded=1;whiteSpace=wrap;html=1;fillColor=#1ba1e2;strokeColor=#006EAF;fontColor=#ffffff;" parent="1" vertex="1">
          <mxGeometry x="700" y="550" width="110" height="45" as="geometry" />
        </mxCell>
        <mxCell id="R2tYwA3PwA-s1lSycaBH-8" value="" style="endArrow=none;html=1;fillColor=#1ba1e2;strokeColor=default;" parent="1" edge="1">
          <mxGeometry width="50" height="50" relative="1" as="geometry">
            <mxPoint x="170" y="520" as="sourcePoint" />
            <mxPoint x="642" y="520" as="targetPoint" />
          </mxGeometry>
        </mxCell>
        <mxCell id="R2tYwA3PwA-s1lSycaBH-13" value="" style="endArrow=classic;html=1;entryX=0.5;entryY=0;entryDx=0;entryDy=0;fillColor=#1ba1e2;strokeColor=light-dark(#0f0f10, #51afe7);" parent="1" target="ywCVn1Az8aZsUojbST9u-31" edge="1">
          <mxGeometry width="50" height="50" relative="1" as="geometry">
            <mxPoint x="495" y="520" as="sourcePoint" />
            <mxPoint x="521.04" y="550" as="targetPoint" />
          </mxGeometry>
        </mxCell>
        <mxCell id="R2tYwA3PwA-s1lSycaBH-68" value="" style="endArrow=none;html=1;fillColor=#1ba1e2;strokeColor=default;" parent="1" edge="1">
          <mxGeometry width="50" height="50" relative="1" as="geometry">
            <mxPoint x="160" y="700" as="sourcePoint" />
            <mxPoint x="780" y="700" as="targetPoint" />
            <Array as="points">
              <mxPoint x="465" y="700" />
            </Array>
          </mxGeometry>
        </mxCell>
        <mxCell id="R2tYwA3PwA-s1lSycaBH-77" value="" style="endArrow=classic;html=1;exitX=0.5;exitY=1;exitDx=0;exitDy=0;fillColor=#1ba1e2;strokeColor=default;" parent="1" source="ywCVn1Az8aZsUojbST9u-31" edge="1">
          <mxGeometry width="50" height="50" relative="1" as="geometry">
            <mxPoint x="520.29" y="670" as="sourcePoint" />
            <mxPoint x="495" y="610" as="targetPoint" />
          </mxGeometry>
        </mxCell>
        <mxCell id="R2tYwA3PwA-s1lSycaBH-82" value="" style="endArrow=classic;html=1;fillColor=#1ba1e2;strokeColor=default;entryX=0.5;entryY=0;entryDx=0;entryDy=0;" parent="1" target="QQzSzM0eZB-9uusMBPyI-5" edge="1">
          <mxGeometry width="50" height="50" relative="1" as="geometry">
            <mxPoint x="510" y="700" as="sourcePoint" />
            <mxPoint x="345" y="821" as="targetPoint" />
          </mxGeometry>
        </mxCell>
        <mxCell id="gKQ6DXcNAFTVPtWTbpPP-9" style="edgeStyle=orthogonalEdgeStyle;rounded=0;orthogonalLoop=1;jettySize=auto;html=1;exitX=0.5;exitY=1;exitDx=0;exitDy=0;entryX=0.5;entryY=0;entryDx=0;entryDy=0;" parent="1" source="4whz8F3u0kkKzOfjNta5-9" target="gKQ6DXcNAFTVPtWTbpPP-8" edge="1">
          <mxGeometry relative="1" as="geometry" />
        </mxCell>
        <mxCell id="gKQ6DXcNAFTVPtWTbpPP-11" style="edgeStyle=orthogonalEdgeStyle;rounded=0;orthogonalLoop=1;jettySize=auto;html=1;exitX=0;exitY=0.5;exitDx=0;exitDy=0;" parent="1" source="4whz8F3u0kkKzOfjNta5-9" edge="1">
          <mxGeometry relative="1" as="geometry">
            <mxPoint x="260" y="700" as="targetPoint" />
          </mxGeometry>
        </mxCell>
        <mxCell id="4whz8F3u0kkKzOfjNta5-9" value="View&lt;br&gt;Posts" style="rounded=1;whiteSpace=wrap;html=1;fillColor=#1ba1e2;strokeColor=#006EAF;fontColor=#ffffff;" parent="1" vertex="1">
          <mxGeometry x="280" y="585" width="110" height="45" as="geometry" />
        </mxCell>
        <mxCell id="4whz8F3u0kkKzOfjNta5-10" value="" style="endArrow=classic;html=1;fillColor=#1ba1e2;strokeColor=light-dark(#0f0f10, #51afe7);entryX=0.5;entryY=0;entryDx=0;entryDy=0;" parent="1" target="4whz8F3u0kkKzOfjNta5-9" edge="1">
          <mxGeometry width="50" height="50" relative="1" as="geometry">
            <mxPoint x="335" y="520" as="sourcePoint" />
            <mxPoint x="456.03999999999996" y="550" as="targetPoint" />
          </mxGeometry>
        </mxCell>
        <mxCell id="RsCr1hK2ZM-w0DUSfxYs-2" value="" style="endArrow=classic;html=1;rounded=0;exitX=0.5;exitY=1;exitDx=0;exitDy=0;" parent="1" source="QQzSzM0eZB-9uusMBPyI-5" edge="1">
          <mxGeometry width="50" height="50" relative="1" as="geometry">
            <mxPoint x="610" y="780" as="sourcePoint" />
            <mxPoint x="510" y="820" as="targetPoint" />
          </mxGeometry>
        </mxCell>
        <mxCell id="1ncG0s6u2fCW8DWnsg-a-1" value="" style="endArrow=classic;html=1;rounded=0;exitX=0.5;exitY=1;exitDx=0;exitDy=0;fillColor=#1ba1e2;strokeColor=default;entryX=0.5;entryY=0;entryDx=0;entryDy=0;" parent="1" source="QQzSzM0eZB-9uusMBPyI-1" target="FphcVSAyuAueKaMEaV9c-4" edge="1">
          <mxGeometry width="50" height="50" relative="1" as="geometry">
            <mxPoint x="390" y="710" as="sourcePoint" />
            <mxPoint x="165" y="700" as="targetPoint" />
          </mxGeometry>
        </mxCell>
        <mxCell id="1ncG0s6u2fCW8DWnsg-a-2" value="" style="endArrow=classic;html=1;rounded=0;exitX=0.57;exitY=1.052;exitDx=0;exitDy=0;exitPerimeter=0;" parent="1" source="R2tYwA3PwA-s1lSycaBH-7" edge="1">
          <mxGeometry width="50" height="50" relative="1" as="geometry">
            <mxPoint x="390" y="710" as="sourcePoint" />
            <mxPoint x="763" y="630" as="targetPoint" />
          </mxGeometry>
        </mxCell>
        <mxCell id="1ncG0s6u2fCW8DWnsg-a-3" value="" style="endArrow=classic;html=1;rounded=0;entryX=0.5;entryY=0;entryDx=0;entryDy=0;" parent="1" target="R2tYwA3PwA-s1lSycaBH-7" edge="1">
          <mxGeometry width="50" height="50" relative="1" as="geometry">
            <mxPoint x="640" y="520" as="sourcePoint" />
            <mxPoint x="440" y="600" as="targetPoint" />
            <Array as="points">
              <mxPoint x="755" y="520" />
            </Array>
          </mxGeometry>
        </mxCell>
        <mxCell id="1ncG0s6u2fCW8DWnsg-a-5" value="" style="ellipse;html=1;shape=endState;fillColor=#000000;strokeColor=#ff0000;" parent="1" vertex="1">
          <mxGeometry x="483.75" y="820" width="52.5" height="50" as="geometry" />
        </mxCell>
        <mxCell id="1ncG0s6u2fCW8DWnsg-a-6" value="" style="ellipse;html=1;shape=startState;fillColor=#000000;strokeColor=#ff0000;" parent="1" vertex="1">
          <mxGeometry x="495" y="80" width="30" height="30" as="geometry" />
        </mxCell>
        <mxCell id="1ncG0s6u2fCW8DWnsg-a-7" value="" style="edgeStyle=orthogonalEdgeStyle;html=1;verticalAlign=bottom;endArrow=open;endSize=8;strokeColor=#ff0000;rounded=0;" parent="1" source="1ncG0s6u2fCW8DWnsg-a-6" edge="1">
          <mxGeometry relative="1" as="geometry">
            <mxPoint x="510" y="170" as="targetPoint" />
          </mxGeometry>
        </mxCell>
        <mxCell id="1ncG0s6u2fCW8DWnsg-a-8" value="No" style="text;html=1;align=center;verticalAlign=middle;resizable=0;points=[];autosize=1;strokeColor=none;fillColor=none;" parent="1" vertex="1">
          <mxGeometry x="440" y="378" width="40" height="30" as="geometry" />
        </mxCell>
        <mxCell id="FphcVSAyuAueKaMEaV9c-5" style="edgeStyle=orthogonalEdgeStyle;rounded=0;orthogonalLoop=1;jettySize=auto;html=1;exitX=0.5;exitY=1;exitDx=0;exitDy=0;" parent="1" source="FphcVSAyuAueKaMEaV9c-4" edge="1">
          <mxGeometry relative="1" as="geometry">
            <mxPoint x="165" y="700" as="targetPoint" />
          </mxGeometry>
        </mxCell>
        <mxCell id="FphcVSAyuAueKaMEaV9c-4" value="Suspend Accounts" style="rounded=0;whiteSpace=wrap;html=1;fillColor=#1ba1e2;strokeColor=#006EAF;fontColor=#ffffff;" parent="1" vertex="1">
          <mxGeometry x="120" y="619" width="90" height="41" as="geometry" />
        </mxCell>
        <mxCell id="FphcVSAyuAueKaMEaV9c-9" style="edgeStyle=orthogonalEdgeStyle;rounded=0;orthogonalLoop=1;jettySize=auto;html=1;exitX=0.5;exitY=1;exitDx=0;exitDy=0;" parent="1" source="FphcVSAyuAueKaMEaV9c-7" edge="1">
          <mxGeometry relative="1" as="geometry">
            <mxPoint x="765" y="700" as="targetPoint" />
          </mxGeometry>
        </mxCell>
        <mxCell id="FphcVSAyuAueKaMEaV9c-7" value="Suspend Accounts" style="rounded=0;whiteSpace=wrap;html=1;fillColor=#1ba1e2;strokeColor=#006EAF;fontColor=#ffffff;" parent="1" vertex="1">
          <mxGeometry x="720" y="630" width="90" height="41" as="geometry" />
        </mxCell>
        <mxCell id="gKQ6DXcNAFTVPtWTbpPP-1" value="Manage&lt;br&gt;Educators" style="rounded=1;whiteSpace=wrap;html=1;fillColor=#1ba1e2;strokeColor=#006EAF;fontColor=#ffffff;" parent="1" vertex="1">
          <mxGeometry x="517.5" y="636" width="90" height="35" as="geometry" />
        </mxCell>
        <mxCell id="gKQ6DXcNAFTVPtWTbpPP-3" value="Add&lt;br&gt;Educators" style="rounded=1;whiteSpace=wrap;html=1;fillColor=#1ba1e2;strokeColor=#006EAF;fontColor=#ffffff;" parent="1" vertex="1">
          <mxGeometry x="393.75" y="636" width="90" height="35" as="geometry" />
        </mxCell>
        <mxCell id="gKQ6DXcNAFTVPtWTbpPP-4" value="" style="endArrow=classic;startArrow=classic;html=1;rounded=0;exitX=0.5;exitY=0;exitDx=0;exitDy=0;entryX=0.5;entryY=0;entryDx=0;entryDy=0;" parent="1" source="gKQ6DXcNAFTVPtWTbpPP-3" target="gKQ6DXcNAFTVPtWTbpPP-1" edge="1">
          <mxGeometry width="50" height="50" relative="1" as="geometry">
            <mxPoint x="450" y="710" as="sourcePoint" />
            <mxPoint x="500" y="660" as="targetPoint" />
            <Array as="points">
              <mxPoint x="439" y="610" />
              <mxPoint x="563" y="610" />
            </Array>
          </mxGeometry>
        </mxCell>
        <mxCell id="gKQ6DXcNAFTVPtWTbpPP-5" style="edgeStyle=orthogonalEdgeStyle;rounded=0;orthogonalLoop=1;jettySize=auto;html=1;" parent="1" edge="1">
          <mxGeometry relative="1" as="geometry">
            <mxPoint x="440" y="700" as="targetPoint" />
            <mxPoint x="440" y="670" as="sourcePoint" />
          </mxGeometry>
        </mxCell>
        <mxCell id="gKQ6DXcNAFTVPtWTbpPP-6" style="edgeStyle=orthogonalEdgeStyle;rounded=0;orthogonalLoop=1;jettySize=auto;html=1;" parent="1" edge="1">
          <mxGeometry relative="1" as="geometry">
            <mxPoint x="562" y="701" as="targetPoint" />
            <mxPoint x="562" y="671" as="sourcePoint" />
          </mxGeometry>
        </mxCell>
        <mxCell id="gKQ6DXcNAFTVPtWTbpPP-7" style="edgeStyle=orthogonalEdgeStyle;rounded=0;orthogonalLoop=1;jettySize=auto;html=1;exitX=1;exitY=0.5;exitDx=0;exitDy=0;" parent="1" source="ywCVn1Az8aZsUojbST9u-31" edge="1">
          <mxGeometry relative="1" as="geometry">
            <mxPoint x="627.5" y="703" as="targetPoint" />
            <mxPoint x="607.5" y="576" as="sourcePoint" />
          </mxGeometry>
        </mxCell>
        <mxCell id="gKQ6DXcNAFTVPtWTbpPP-10" style="edgeStyle=orthogonalEdgeStyle;rounded=0;orthogonalLoop=1;jettySize=auto;html=1;exitX=0.5;exitY=1;exitDx=0;exitDy=0;" parent="1" source="gKQ6DXcNAFTVPtWTbpPP-8" edge="1">
          <mxGeometry relative="1" as="geometry">
            <mxPoint x="335" y="700" as="targetPoint" />
          </mxGeometry>
        </mxCell>
        <mxCell id="gKQ6DXcNAFTVPtWTbpPP-8" value="Manage Post" style="rounded=1;whiteSpace=wrap;html=1;fillColor=#1ba1e2;strokeColor=#006EAF;fontColor=#ffffff;" parent="1" vertex="1">
          <mxGeometry x="295" y="650" width="80" height="31" as="geometry" />
        </mxCell>
        <mxCell id="m3viAqSai1HG1Cw4Mj0E-2" value="" style="endArrow=classic;html=1;rounded=0;" edge="1" parent="1">
          <mxGeometry width="50" height="50" relative="1" as="geometry">
            <mxPoint x="520" y="500" as="sourcePoint" />
            <mxPoint x="510" y="730" as="targetPoint" />
            <Array as="points">
              <mxPoint x="820" y="500" />
              <mxPoint x="820" y="730" />
            </Array>
          </mxGeometry>
        </mxCell>
      </root>
    </mxGraphModel>
  </diagram>
  <diagram id="xVwnrzFggJjLAyXmYQAm" name="Page-2">
    <mxGraphModel dx="1170" dy="813" grid="1" gridSize="10" guides="1" tooltips="1" connect="1" arrows="1" fold="1" page="1" pageScale="1" pageWidth="850" pageHeight="1100" math="0" shadow="0">
      <root>
        <mxCell id="0" />
        <mxCell id="1" parent="0" />
      </root>
    </mxGraphModel>
  </diagram>
</mxfile>
